<svg width="48" height="48" viewBox="0 0 48 48" fill="none" xmlns="http://www.w3.org/2000/svg">
<path d="M0 24C0 10.7452 10.7452 0 24 0V0C37.2548 0 48 10.7452 48 24V24C48 37.2548 37.2548 48 24 48V48C10.7452 48 0 37.2548 0 24V24Z" fill="#DB4437"/>
<g clip-path="url(#clip0_423_1241)">
<path d="M37.7994 24.4813C37.7994 32.1091 32.5573 37.5374 24.8158 37.5374C17.3935 37.5374 11.3994 31.5646 11.3994 24.1687C11.3994 16.7727 17.3935 10.7999 24.8158 10.7999C28.4296 10.7999 31.4699 12.1206 33.8124 14.2984L30.1607 17.797C25.3838 13.2041 16.5009 16.6541 16.5009 24.1687C16.5009 28.8316 20.2391 32.6104 24.8158 32.6104C30.1283 32.6104 32.1191 28.8154 32.4329 26.8478H24.8158V22.2496H37.5884C37.7129 22.9342 37.7994 23.5919 37.7994 24.4813Z" fill="#F1F1F1"/>
</g>
<defs>
<clipPath id="clip0_423_1241">
<rect width="26.4" height="27.6" fill="white" transform="translate(11.3994 9.59998)"/>
</clipPath>
</defs>
</svg>
