<svg width="48" height="48" viewBox="0 0 48 48" fill="none" xmlns="http://www.w3.org/2000/svg">
<path d="M11.7 46C10.1333 46 8.79167 45.4417 7.675 44.325C6.55833 43.2083 6 41.8667 6 40.3C6 38.7 6.55833 37.35 7.675 36.25C8.79167 35.15 10.1333 34.6 11.7 34.6C12.1667 34.6 12.575 34.6417 12.925 34.725C13.275 34.8083 13.6333 34.9333 14 35.1L18.25 29.8C17.6167 29.0333 17.1333 28.1583 16.8 27.175C16.4667 26.1917 16.3833 25.1667 16.55 24.1L10.5 22.05C10 22.8833 9.34167 23.5333 8.525 24C7.70833 24.4667 6.76667 24.7 5.7 24.7C4.13333 24.7 2.79167 24.1417 1.675 23.025C0.558333 21.9083 0 20.5667 0 19C0 17.4 0.558333 16.05 1.675 14.95C2.79167 13.85 4.13333 13.3 5.7 13.3C7.3 13.3 8.65 13.85 9.75 14.95C10.85 16.05 11.4 17.4 11.4 19V19.2L17.5 21.3C18.1 20.2333 18.825 19.4167 19.675 18.85C20.525 18.2833 21.4667 17.8833 22.5 17.65V11.2C21.2 10.8333 20.175 10.1167 19.425 9.05C18.675 7.98333 18.3 6.86667 18.3 5.7C18.3 4.1 18.8583 2.75 19.975 1.65C21.0917 0.55 22.4333 0 24 0C25.6 0 26.95 0.55 28.05 1.65C29.15 2.75 29.7 4.1 29.7 5.7C29.7 6.86667 29.3167 7.98333 28.55 9.05C27.7833 10.1167 26.7667 10.8333 25.5 11.2V17.65C26.5333 17.8833 27.4833 18.2833 28.35 18.85C29.2167 19.4167 29.95 20.2333 30.55 21.3L36.6 19.2V19C36.6 17.4 37.1583 16.05 38.275 14.95C39.3917 13.85 40.7333 13.3 42.3 13.3C43.9 13.3 45.25 13.85 46.35 14.95C47.45 16.05 48 17.4 48 19C48 20.5667 47.45 21.9083 46.35 23.025C45.25 24.1417 43.9 24.7 42.3 24.7C41.2333 24.7 40.2833 24.4667 39.45 24C38.6167 23.5333 37.9667 22.8833 37.5 22.05L31.45 24.1C31.6167 25.1667 31.5417 26.1917 31.225 27.175C30.9083 28.1583 30.4167 29.0333 29.75 29.8L34 35.1C34.3667 34.9333 34.725 34.8083 35.075 34.725C35.425 34.6417 35.8333 34.6 36.3 34.6C37.9 34.6 39.25 35.15 40.35 36.25C41.45 37.35 42 38.7 42 40.3C42 41.8667 41.45 43.2083 40.35 44.325C39.25 45.4417 37.9 46 36.3 46C34.7333 46 33.3917 45.4417 32.275 44.325C31.1583 43.2083 30.6 41.8667 30.6 40.3C30.6 39.6333 30.6917 39.0333 30.875 38.5C31.0583 37.9667 31.3167 37.45 31.65 36.95L27.4 31.65C26.3333 32.2167 25.1917 32.5 23.975 32.5C22.7583 32.5 21.6167 32.2167 20.55 31.65L16.35 37C16.6833 37.5 16.9417 38.0083 17.125 38.525C17.3083 39.0417 17.4 39.6333 17.4 40.3C17.4 41.8667 16.85 43.2083 15.75 44.325C14.65 45.4417 13.3 46 11.7 46ZM5.7 21.7C6.46667 21.7 7.10833 21.4417 7.625 20.925C8.14167 20.4083 8.4 19.7667 8.4 19C8.4 18.2333 8.14167 17.5917 7.625 17.075C7.10833 16.5583 6.46667 16.3 5.7 16.3C4.93333 16.3 4.29167 16.5583 3.775 17.075C3.25833 17.5917 3 18.2333 3 19C3 19.7667 3.25833 20.4083 3.775 20.925C4.29167 21.4417 4.93333 21.7 5.7 21.7V21.7ZM11.7 43C12.4667 43 13.1083 42.7417 13.625 42.225C14.1417 41.7083 14.4 41.0667 14.4 40.3C14.4 39.5333 14.1417 38.8917 13.625 38.375C13.1083 37.8583 12.4667 37.6 11.7 37.6C10.9333 37.6 10.2917 37.8583 9.775 38.375C9.25833 38.8917 9 39.5333 9 40.3C9 41.0667 9.25833 41.7083 9.775 42.225C10.2917 42.7417 10.9333 43 11.7 43ZM24 8.4C24.7667 8.4 25.4083 8.14167 25.925 7.625C26.4417 7.10833 26.7 6.46667 26.7 5.7C26.7 4.93333 26.4417 4.29167 25.925 3.775C25.4083 3.25833 24.7667 3 24 3C23.2333 3 22.5917 3.25833 22.075 3.775C21.5583 4.29167 21.3 4.93333 21.3 5.7C21.3 6.46667 21.5583 7.10833 22.075 7.625C22.5917 8.14167 23.2333 8.4 24 8.4ZM24.05 29.5C25.2833 29.5 26.3333 29.0583 27.2 28.175C28.0667 27.2917 28.5 26.2167 28.5 24.95C28.5 23.7167 28.0667 22.6667 27.2 21.8C26.3333 20.9333 25.2667 20.5 24 20.5C22.7667 20.5 21.7083 20.9333 20.825 21.8C19.9417 22.6667 19.5 23.7333 19.5 25C19.5 26.2333 19.9417 27.2917 20.825 28.175C21.7083 29.0583 22.7833 29.5 24.05 29.5ZM36.3 43C37.0667 43 37.7083 42.7417 38.225 42.225C38.7417 41.7083 39 41.0667 39 40.3C39 39.5333 38.7417 38.8917 38.225 38.375C37.7083 37.8583 37.0667 37.6 36.3 37.6C35.5333 37.6 34.8917 37.8583 34.375 38.375C33.8583 38.8917 33.6 39.5333 33.6 40.3C33.6 41.0667 33.8583 41.7083 34.375 42.225C34.8917 42.7417 35.5333 43 36.3 43ZM42.3 21.7C43.0667 21.7 43.7083 21.4417 44.225 20.925C44.7417 20.4083 45 19.7667 45 19C45 18.2333 44.7417 17.5917 44.225 17.075C43.7083 16.5583 43.0667 16.3 42.3 16.3C41.5333 16.3 40.8917 16.5583 40.375 17.075C39.8583 17.5917 39.6 18.2333 39.6 19C39.6 19.7667 39.8583 20.4083 40.375 20.925C40.8917 21.4417 41.5333 21.7 42.3 21.7Z" fill="#F3F3F3"/>
</svg>
